<svg class="animated" id="freepik_stories-realtor" xmlns="http://www.w3.org/2000/svg" viewBox="0 0 500 500" version="1.1" xmlns:xlink="http://www.w3.org/1999/xlink" xmlns:svgjs="http://svgjs.com/svgjs"><style>svg#freepik_stories-realtor:not(.animated) .animable {opacity: 0;}svg#freepik_stories-realtor.animated #freepik--Sign--inject-18 {animation: 1s 1 forwards linear slideUp,1.5s Infinite  linear floating;animation-delay: 0s,1s;}svg#freepik_stories-realtor.animated #freepik--Character--inject-18 {animation: 1s 1 forwards linear slideDown,1.5s Infinite  linear wind;animation-delay: 0s,1s;}svg#freepik_stories-realtor.animated #freepik--House--inject-18 {animation: 1s 1 forwards cubic-bezier(.36,-0.01,.5,1.38) slideUp,1.5s Infinite  linear heartbeat;animation-delay: 0s,1s;}            @keyframes slideUp {                0% {                    opacity: 0;                    transform: translateY(30px);                }                100% {                    opacity: 1;                    transform: inherit;                }            }                    @keyframes floating {                0% {                    opacity: 1;                    transform: translateY(0px);                }                50% {                    transform: translateY(-10px);                }                100% {                    opacity: 1;                    transform: translateY(0px);                }            }                    @keyframes slideDown {                0% {                    opacity: 0;                    transform: translateY(-30px);                }                100% {                    opacity: 1;                    transform: translateY(0);                }            }                    @keyframes wind {                0% {                    transform: rotate( 0deg );                }                25% {                    transform: rotate( 1deg );                }                75% {                    transform: rotate( -1deg );                }            }                    @keyframes heartbeat {                0% {                    transform: scale(1);                }                10% {                    transform: scale(1.1);                }                30% {                    transform: scale(1);                }                40% {                    transform: scale(1);                }                50% {                    transform: scale(1.1);                }                60% {                    transform: scale(1);                }                100% {                    transform: scale(1);                }            }        </style><g id="freepik--background-complete--inject-18" class="animable" style="transform-origin: 250px 228.23px;"><rect y="382.4" width="500" height="0.25" style="fill: rgb(235, 235, 235); transform-origin: 250px 382.525px;" id="el1tclk25v374" class="animable"></rect><rect x="416.78" y="398.49" width="33.12" height="0.25" style="fill: rgb(235, 235, 235); transform-origin: 433.34px 398.615px;" id="ell6kdkfl7xf" class="animable"></rect><rect x="322.53" y="401.21" width="8.69" height="0.25" style="fill: rgb(235, 235, 235); transform-origin: 326.875px 401.335px;" id="el1tpacuhbag6" class="animable"></rect><rect x="396.59" y="389.21" width="19.19" height="0.25" style="fill: rgb(235, 235, 235); transform-origin: 406.185px 389.335px;" id="el7u9txx52wzm" class="animable"></rect><rect x="52.46" y="390.89" width="43.19" height="0.25" style="fill: rgb(235, 235, 235); transform-origin: 74.055px 391.015px;" id="elr6t0jl5q36i" class="animable"></rect><rect x="104.56" y="390.89" width="6.33" height="0.25" style="fill: rgb(235, 235, 235); transform-origin: 107.725px 391.015px;" id="elt7dxvxyfbhg" class="animable"></rect><rect x="131.47" y="395.11" width="93.68" height="0.25" style="fill: rgb(235, 235, 235); transform-origin: 178.31px 395.235px;" id="elcqn52s0qt7" class="animable"></rect><path d="M237,337.8H43.91a5.71,5.71,0,0,1-5.7-5.71V60.66A5.71,5.71,0,0,1,43.91,55H237a5.71,5.71,0,0,1,5.71,5.71V332.09A5.71,5.71,0,0,1,237,337.8ZM43.91,55.2a5.46,5.46,0,0,0-5.45,5.46V332.09a5.46,5.46,0,0,0,5.45,5.46H237a5.47,5.47,0,0,0,5.46-5.46V60.66A5.47,5.47,0,0,0,237,55.2Z" style="fill: rgb(235, 235, 235); transform-origin: 140.46px 196.4px;" id="el4f0h54cslvu" class="animable"></path><path d="M453.31,337.8H260.21a5.72,5.72,0,0,1-5.71-5.71V60.66A5.72,5.72,0,0,1,260.21,55h193.1A5.71,5.71,0,0,1,459,60.66V332.09A5.71,5.71,0,0,1,453.31,337.8ZM260.21,55.2a5.47,5.47,0,0,0-5.46,5.46V332.09a5.47,5.47,0,0,0,5.46,5.46h193.1a5.47,5.47,0,0,0,5.46-5.46V60.66a5.47,5.47,0,0,0-5.46-5.46Z" style="fill: rgb(235, 235, 235); transform-origin: 356.75px 196.4px;" id="elgcmvv476s8o" class="animable"></path><ellipse cx="388.7" cy="274.44" rx="55.19" ry="42.44" style="fill: rgb(235, 235, 235); transform-origin: 388.7px 274.44px;" id="elpsrbrkb6ypo" class="animable"></ellipse><ellipse cx="377.15" cy="229.93" rx="43.63" ry="33.56" style="fill: rgb(235, 235, 235); transform-origin: 377.15px 229.93px;" id="elf7z5xha9nqe" class="animable"></ellipse><path d="M380.49,83.09s7.21-6.23-2.15-7.72c-17-2.71-32.37,5.76-34.32,6.89,2-3.93.58-7-9.67-5.89C326.28,77.22,304.61,88,304.61,88H410.53C425.16,74.85,380.49,83.09,380.49,83.09Z" style="fill: rgb(240, 240, 240); transform-origin: 359.042px 81.419px;" id="elv18n3vmxsi" class="animable"></path><path d="M95.27,130.67s5.94-4.62.88-5.72c-9.17-2-20.51,4.27-22,5.1,2.27-2.91,2.25-5.15-4-4.36-5,.63-20.6,8.61-20.6,8.61h61.92C123.66,124.56,95.27,130.67,95.27,130.67Z" style="fill: rgb(240, 240, 240); transform-origin: 82.0307px 129.429px;" id="elwttsdpuao9h" class="animable"></path><path d="M424.37,121.44s4.22-3.28.63-4.07c-6.52-1.42-14.58,3-15.61,3.63,1.62-2.07,1.6-3.66-2.86-3.1-3.52.45-14.64,6.12-14.64,6.12h44C444.54,117.1,424.37,121.44,424.37,121.44Z" style="fill: rgb(245, 245, 245); transform-origin: 414.968px 120.555px;" id="el1k4xwmv6053" class="animable"></path><ellipse cx="110.89" cy="336.2" rx="29.58" ry="22.75" style="fill: rgb(235, 235, 235); transform-origin: 110.89px 336.2px;" id="elwnu4k8f1hx" class="animable"></ellipse><path d="M92.43,341.29c-21.56,0-39,18.4-39,41.11h78.07C131.47,359.69,114,341.29,92.43,341.29Z" style="fill: rgb(235, 235, 235); transform-origin: 92.465px 361.845px;" id="elfcjtsgdvvmt" class="animable"></path><rect x="112.24" y="170.11" width="173.36" height="212.29" style="fill: rgb(240, 240, 240); transform-origin: 198.92px 276.255px;" id="ellaajiy0v9me" class="animable"></rect><g id="eldfrso8cra9i"><rect x="285.6" y="170.11" width="102.17" height="212.29" style="fill: rgb(230, 230, 230); transform-origin: 336.685px 276.255px; transform: rotate(180deg);" class="animable"></rect></g><g id="eldvv1lgkywo"><rect x="317.38" y="190.56" width="38.59" height="73.7" style="fill: rgb(245, 245, 245); transform-origin: 336.675px 227.41px; transform: rotate(180deg);" class="animable"></rect></g><g id="elyw367ozs99g"><rect x="212.84" y="181" width="38.59" height="44.44" style="fill: rgb(245, 245, 245); transform-origin: 232.135px 203.22px; transform: rotate(180deg);" class="animable"></rect></g><g id="el759tztl9nsu"><rect x="146.4" y="181" width="38.59" height="44.44" style="fill: rgb(245, 245, 245); transform-origin: 165.695px 203.22px; transform: rotate(180deg);" class="animable"></rect></g><g id="elv3ydw047xok"><rect x="212.84" y="233.67" width="38.59" height="8.22" style="fill: rgb(245, 245, 245); transform-origin: 232.135px 237.78px; transform: rotate(180deg);" class="animable"></rect></g><g id="el0jwvhppwx2fe"><rect x="146.4" y="233.67" width="38.59" height="8.22" style="fill: rgb(245, 245, 245); transform-origin: 165.695px 237.78px; transform: rotate(180deg);" class="animable"></rect></g><g id="el0wge0d35dgtk"><rect x="285.6" y="290" width="102.17" height="92.4" style="fill: rgb(245, 245, 245); transform-origin: 336.685px 336.2px; transform: rotate(180deg);" class="animable"></rect></g><g id="el23nvlw485duh"><rect x="339.84" y="304.42" width="32.27" height="45.07" style="fill: rgb(230, 230, 230); transform-origin: 355.975px 326.955px; transform: rotate(180deg);" class="animable"></rect></g><g id="el4oaimof4hsc"><rect x="301.25" y="304.42" width="32.27" height="45.07" style="fill: rgb(230, 230, 230); transform-origin: 317.385px 326.955px; transform: rotate(180deg);" class="animable"></rect></g><rect x="112.24" y="290" width="173.36" height="92.4" style="fill: rgb(250, 250, 250); transform-origin: 198.92px 336.2px;" id="elvmrvc98pam" class="animable"></rect><rect x="140.46" y="302" width="37.85" height="75.2" style="fill: rgb(230, 230, 230); transform-origin: 159.385px 339.6px;" id="ele7qxd5gh0b4" class="animable"></rect><polygon points="301.08 104 198.92 104 285.6 170.11 387.76 170.11 301.08 104" style="fill: rgb(240, 240, 240); transform-origin: 293.34px 137.055px;" id="elcwqnp4kdwwe" class="animable"></polygon><rect x="151.47" y="96.11" width="28.44" height="58.44" style="fill: rgb(235, 235, 235); transform-origin: 165.69px 125.33px;" id="elvz1ywhiyjg" class="animable"></rect><polygon points="198.92 104 112.24 170.11 285.6 170.11 198.92 104" style="fill: rgb(250, 250, 250); transform-origin: 198.92px 137.055px;" id="el8vppuaqfyfv" class="animable"></polygon><polygon points="198.92 116.72 128.92 170.11 268.92 170.11 198.92 116.72" style="fill: rgb(240, 240, 240); transform-origin: 198.92px 143.415px;" id="ela8k5g7ruifu" class="animable"></polygon><polygon points="238.22 253.78 120.89 253.78 94.56 280.11 94.56 290 264.56 290 264.56 280.11 238.22 253.78" style="fill: rgb(230, 230, 230); transform-origin: 179.56px 271.89px;" id="elf4h2hu6k648" class="animable"></polygon><rect x="94.56" y="372" width="293.21" height="10.4" style="fill: rgb(230, 230, 230); transform-origin: 241.165px 377.2px;" id="eljuaquh6x4" class="animable"></rect><rect x="168.78" y="336.2" width="116.82" height="35.8" style="fill: rgb(240, 240, 240); transform-origin: 227.19px 354.1px;" id="elghkr5v9lmq4" class="animable"></rect><rect x="232.11" y="290" width="6.89" height="82" style="fill: rgb(230, 230, 230); transform-origin: 235.555px 331px;" id="els7l7w7nl1l" class="animable"></rect><rect x="99.89" y="290" width="6.89" height="82" style="fill: rgb(230, 230, 230); transform-origin: 103.335px 331px;" id="elnne3vqqhx3f" class="animable"></rect></g><g id="freepik--Shadow--inject-18" class="animable" style="transform-origin: 250px 416.24px;"><ellipse id="freepik--path--inject-18" cx="250" cy="416.24" rx="193.89" ry="11.32" style="fill: rgb(245, 245, 245); transform-origin: 250px 416.24px;" class="animable"></ellipse></g><g id="freepik--Sign--inject-18" class="animable" style="transform-origin: 341.9px 325.045px;"><rect x="273.41" y="230.85" width="13.91" height="188.39" style="fill: rgb(10, 158, 84); transform-origin: 280.365px 325.045px;" id="el2hcjw3uifw3" class="animable"></rect><g id="el2ihytee6x26"><rect x="273.41" y="230.85" width="13.91" height="188.39" style="fill: rgb(255, 255, 255); opacity: 0.3; transform-origin: 280.365px 325.045px;" class="animable"></rect></g><rect x="287.32" y="230.85" width="13.91" height="188.39" style="fill: rgb(10, 158, 84); transform-origin: 294.275px 325.045px;" id="elzposxch78ri" class="animable"></rect><g id="el9iwbk6ojyud"><rect x="287.32" y="230.85" width="13.91" height="188.39" style="fill: rgb(255, 255, 255); opacity: 0.5; transform-origin: 294.275px 325.045px;" class="animable"></rect></g><rect x="291.89" y="241.58" width="108.93" height="13.25" style="fill: rgb(10, 158, 84); transform-origin: 346.355px 248.205px;" id="el3pdioqc9ark" class="animable"></rect><g id="elzxjucm9oyu8"><rect x="291.89" y="241.58" width="108.93" height="13.25" style="fill: rgb(255, 255, 255); opacity: 0.3; transform-origin: 346.355px 248.205px;" class="animable"></rect></g><rect x="400.82" y="241.58" width="9.57" height="13.25" style="fill: rgb(10, 158, 84); transform-origin: 405.605px 248.205px;" id="el6ej24lrs8fc" class="animable"></rect><g id="el9s2gjog7vne"><rect x="400.82" y="241.58" width="9.57" height="13.25" style="fill: rgb(255, 255, 255); opacity: 0.5; transform-origin: 405.605px 248.205px;" class="animable"></rect></g><rect x="309.72" y="254.83" width="82.4" height="78.78" style="fill: rgb(10, 158, 84); transform-origin: 350.92px 294.22px;" id="elnqwyls63mi" class="animable"></rect><g id="elcy2jt2haovk"><rect x="389.22" y="254.83" width="2.9" height="78.78" style="opacity: 0.2; transform-origin: 390.67px 294.22px;" class="animable"></rect></g><path d="M324.33,271.48h13v3.65h-7.7v3h6.58v3.43h-6.58v6.94h-5.28Z" style="fill: rgb(255, 255, 255); transform-origin: 330.83px 279.99px;" id="elf8zxt08w26k" class="animable"></path><path d="M339.48,280a8,8,0,0,1,8.77-8.8,8.88,8.88,0,0,1,6.54,2.28,8.59,8.59,0,0,1,2.29,6.38,10.48,10.48,0,0,1-1,4.89,7.13,7.13,0,0,1-2.9,3,9.5,9.5,0,0,1-4.72,1.06,10.89,10.89,0,0,1-4.76-.91,7.19,7.19,0,0,1-3.05-2.9A9.61,9.61,0,0,1,339.48,280Zm5.25,0a5.75,5.75,0,0,0,.95,3.7,3.64,3.64,0,0,0,5.23,0c.61-.73.92-2.05.92-4a5.25,5.25,0,0,0-1-3.5,3.31,3.31,0,0,0-2.63-1.11,3.18,3.18,0,0,0-2.55,1.12A5.73,5.73,0,0,0,344.73,280Z" style="fill: rgb(255, 255, 255); transform-origin: 348.266px 279.988px;" id="elf7owg5f8e04" class="animable"></path><path d="M360,288.47v-17h8.75a12.65,12.65,0,0,1,3.72.42,3.9,3.9,0,0,1,2.07,1.55,4.65,4.65,0,0,1,.79,2.75,4.52,4.52,0,0,1-2.26,4.1,6.15,6.15,0,0,1-1.84.67,5.14,5.14,0,0,1,1.36.63,5,5,0,0,1,.84.89,7.05,7.05,0,0,1,.74,1.06l2.54,4.92h-5.93L368,283.28A3.87,3.87,0,0,0,367,282a2.22,2.22,0,0,0-1.28-.39h-.47v6.89Zm5.27-10.1h2.22a8.34,8.34,0,0,0,1.39-.23,1.4,1.4,0,0,0,.85-.54,1.55,1.55,0,0,0,.33-1,1.61,1.61,0,0,0-.52-1.27,3.19,3.19,0,0,0-2-.44h-2.31Z" style="fill: rgb(255, 255, 255); transform-origin: 368.355px 279.981px;" id="el8edpug406c" class="animable"></path><path d="M316.14,311.33l5-.31a3.72,3.72,0,0,0,.67,1.85,2.76,2.76,0,0,0,2.31,1,2.6,2.6,0,0,0,1.74-.52,1.59,1.59,0,0,0,.6-1.23,1.55,1.55,0,0,0-.58-1.18,6.81,6.81,0,0,0-2.68-1,11.4,11.4,0,0,1-4.93-2.07,4.12,4.12,0,0,1-1.48-3.27,4.43,4.43,0,0,1,.76-2.48,4.92,4.92,0,0,1,2.28-1.83,10.75,10.75,0,0,1,4.18-.67,8.58,8.58,0,0,1,5,1.21,5.27,5.27,0,0,1,2,3.86l-4.95.29a2.31,2.31,0,0,0-2.57-2.19,2.1,2.1,0,0,0-1.38.39,1.17,1.17,0,0,0-.47.94,1,1,0,0,0,.39.73,4.38,4.38,0,0,0,1.76.63,21.62,21.62,0,0,1,4.93,1.5,5.12,5.12,0,0,1,2.16,1.88,4.71,4.71,0,0,1,.68,2.51,5.43,5.43,0,0,1-.9,3,5.68,5.68,0,0,1-2.53,2.09,10.28,10.28,0,0,1-4.09.71c-2.89,0-4.89-.55-6-1.67A6.59,6.59,0,0,1,316.14,311.33Z" style="fill: rgb(255, 255, 255); transform-origin: 323.85px 308.388px;" id="elbba350eq25s" class="animable"></path><path d="M344.64,314.15h-6l-.83,2.8h-5.36l6.39-17h5.72L351,317h-5.5Zm-1.09-3.68-1.87-6.1-1.86,6.1Z" style="fill: rgb(255, 255, 255); transform-origin: 341.725px 308.475px;" id="el6vcw8p7w5he" class="animable"></path><path d="M352.66,300h5.25v12.81h8.19V317H352.66Z" style="fill: rgb(255, 255, 255); transform-origin: 359.38px 308.5px;" id="elf7i2wqjm7d4" class="animable"></path><path d="M368.47,300h14.07v3.63h-8.8v2.7h8.17v3.47h-8.17v3.35h9.06V317H368.47Z" style="fill: rgb(255, 255, 255); transform-origin: 375.635px 308.5px;" id="elckdwvc99xz" class="animable"></path></g><g id="freepik--Character--inject-18" class="animable" style="transform-origin: 211.487px 249.286px;"><path d="M219.74,150.76l-1.51,2c-.49.63-1,1.24-1.51,1.85-1,1.22-2.06,2.4-3.12,3.58-2.14,2.33-4.36,4.62-6.79,6.8a68.79,68.79,0,0,1-7.89,6.31,43.39,43.39,0,0,1-4.78,2.84A26.92,26.92,0,0,1,188,176.4l-.43.09a6.37,6.37,0,0,1-1.13.15,13.26,13.26,0,0,1-6-1.24,16.75,16.75,0,0,1-3.58-2.23,30.52,30.52,0,0,1-4.51-4.54,62.67,62.67,0,0,1-6-9c-1.66-3-3.13-6.06-4.46-9.15a97.63,97.63,0,0,1-3.56-9.44,4.57,4.57,0,0,1,8-4.1l.09.12c1.85,2.49,3.72,5.1,5.6,7.59s3.76,5,5.7,7.31a63.42,63.42,0,0,0,5.81,6.31,14.11,14.11,0,0,0,2.61,2c.34.18.6.25.58.2s-.4-.3-1.31-.28l-1.56.24a16,16,0,0,0,2-1.17c.84-.58,1.78-1.25,2.71-2s1.89-1.63,2.83-2.53,1.91-1.82,2.86-2.78c1.88-2,3.77-4,5.61-6.07l2.75-3.16,2.64-3.1.25-.29a9.12,9.12,0,0,1,14.19,11.45Z" style="fill: rgb(38, 50, 56); transform-origin: 189.849px 155.9px;" id="ell4iq797dsvm" class="animable"></path><path d="M166.12,135c-.57-4.5-8.74-6.58-8.74-6.58l-4.77-2.11a3.6,3.6,0,0,0-4.48,1.32l-2.43,3.72a3.62,3.62,0,0,0,1.1,5l4.38,2.74a6.55,6.55,0,0,0,2.58.92l3.72.48a8.32,8.32,0,0,0,8.07-3.76l.23-.35A2.17,2.17,0,0,0,166.12,135Z" style="fill: rgb(255, 181, 115); transform-origin: 155.63px 133.278px;" id="elzbksxxad2cq" class="animable"></path><path d="M221.83,312.59c13-41.27,23.09-91.49,23.09-91.49l-39.15-3.85s-2.57,64.62-5,93.24c-2.54,29.75-12.47,98.86-12.47,98.86l11.9,1S220.63,349.54,221.83,312.59Z" style="fill: rgb(38, 50, 56); transform-origin: 216.61px 313.8px;" id="el7m1u24wyrqy" class="animable"></path><path d="M229.65,254.82l5.44,9.71c-2.78,11.33-6,23.79-9.59,36C226,281.37,228,259.27,229.65,254.82Z" id="elcisvgroh2br" class="animable" style="transform-origin: 230.295px 277.675px;"></path><path d="M172.35,412.1s16.83-1.38,18.44-3.77l9.05,1.37-1.49,9.54-5.58-.84-.72-1-1.55.67C186,417.38,174,415.4,171.34,414A2.14,2.14,0,0,1,172.35,412.1Z" style="fill: rgb(38, 50, 56); transform-origin: 185.589px 413.785px;" id="elhxb3of6d02" class="animable"></path><path d="M259.88,309.84c-.69-42.43,2-70.79-1.61-91.7l-35.77-.54s8.79,67.32,13.16,95.35,9.93,97.25,9.93,97.25h11.06S266.27,342.67,259.88,309.84Z" style="fill: rgb(38, 50, 56); transform-origin: 242.286px 313.9px;" id="elig08xd8jv8f" class="animable"></path><path d="M234.75,416.05s10.61-3.87,12-6.47h9.16l-.69,9.66h-7.48l-.81-.89-1.48.89c-4.57,0-8.76-.18-11.56-1.21A2.27,2.27,0,0,1,234.75,416.05Z" style="fill: rgb(38, 50, 56); transform-origin: 244.896px 414.41px;" id="elmo2u5piv1tl" class="animable"></path><path d="M256.68,133.47c-12.65-1.57-30.73-1.42-42.85.67a14.66,14.66,0,0,0-11.9,12.34c-2.55,18.3-.36,50.29,1.27,82.49,27.68,9.47,56.89-.13,56.89-.13,1-6.5-1.26-27.78-2.79-39.14,2.29-11.73,7.13-25.17,10.33-40.75A12.76,12.76,0,0,0,256.68,133.47Z" style="fill: rgb(38, 50, 56); transform-origin: 234.353px 182.78px;" id="elzd3howmuefo" class="animable"></path><path d="M224.06,132.91c-1.52,1.53-2.53,3.94-3.07,7-1.3,7.43.17,18.88,4.09,32,3.75-10.58,11.82-24.58,16.78-32.71,2.35-3.85,4-6.4,4.14-6.62v0A45.72,45.72,0,0,0,224.06,132.91Z" style="fill: rgb(224, 224, 224); transform-origin: 233.264px 151.657px;" id="el0r3hokrmcww" class="animable"></path><path d="M244.16,109.3l-14.41,11.82c1.87,4.95,2.46,10.11-5.68,12.1-2,2.69,1.56,5.77,4.92,7.17,5.43-.67,13.09-2.48,16.4-7C244.34,129.79,242.76,116.63,244.16,109.3Z" style="fill: rgb(255, 181, 115); transform-origin: 234.441px 124.845px;" id="elbh66ok8qj3" class="animable"></path><path d="M225.55,137.41a10.94,10.94,0,0,0,3,4.5c2.2,0,5.41-2.47,5.41-2.47s-1.24-3.49-3-4.2C226.51,136.34,225.55,137.41,225.55,137.41Z" style="fill: rgb(10, 158, 84); transform-origin: 229.755px 138.575px;" id="el1717z4wtzpc" class="animable"></path><path d="M230.57,140.4a3.16,3.16,0,0,0-2.43-.62c-2.88,4.09-4.71,10.45-6.49,17.79A123.84,123.84,0,0,0,225.08,172a113.15,113.15,0,0,1,5.6-12.73A75.86,75.86,0,0,1,230.57,140.4Z" style="fill: rgb(10, 158, 84); transform-origin: 226.165px 155.87px;" id="ellglmhenoxm" class="animable"></path><g id="el8o9c69nydqf"><path d="M238.15,114.23l-8.39,6.88a18.81,18.81,0,0,1,1,3.55c3.25.23,7.77-3.06,8-6A12.22,12.22,0,0,0,238.15,114.23Z" style="opacity: 0.2; transform-origin: 234.267px 119.451px;" class="animable"></path></g><path d="M223.81,88.62c-6.28,6.19-2.16,16.09-2.16,16.09S232.63,85.12,223.81,88.62Z" style="fill: rgb(38, 50, 56); transform-origin: 223.781px 96.4556px;" id="elskmn9fzdv2k" class="animable"></path><path d="M246.22,101.25c-1.31,9-1.62,14.39-6.6,18.63-7.49,6.38-18.36,1.19-19.78-8.08-1.27-8.35,1.09-21.72,10.29-24.52A12.58,12.58,0,0,1,246.22,101.25Z" style="fill: rgb(255, 181, 115); transform-origin: 232.946px 104.719px;" id="elinwpfqcbhjd" class="animable"></path><path d="M247.23,105.88c-6.77,1.39-8.73-3.85-8.73-3.85a10.22,10.22,0,0,0,4.16,0s-4.56-4.66-1-9.17c-1.86-2-10.14-1.14-14,0-4.22-1.59-6.39-2.33-8.64-7.34a10.68,10.68,0,0,0,6.15-.76c4.2-1.93-2.1-3.35-2.1-3.35a30.29,30.29,0,0,1,15.2-1.79c9.8,1.38,11.32,4.29,10.94,7.59,5.13-.06,5.64,5.65,5.64,5.65a5,5,0,0,0-2.14-1C253,93.6,254,103.81,247.23,105.88Z" style="fill: rgb(38, 50, 56); transform-origin: 236.935px 92.7229px;" id="eloj82t6l40e" class="animable"></path><path d="M247.82,87.88c1.88-.85,2.45-5.34,1.34-7.22C254.19,86,250.56,88.18,247.82,87.88Z" style="fill: rgb(38, 50, 56); transform-origin: 249.746px 84.2835px;" id="elqcwi5h7ryyj" class="animable"></path><path d="M249.28,108.26a7.85,7.85,0,0,1-4.38,4.16c-2.61,1-4.17-1.3-3.66-3.88.46-2.33,2.37-5.63,5.09-5.49A3.58,3.58,0,0,1,249.28,108.26Z" style="fill: rgb(255, 181, 115); transform-origin: 245.41px 107.852px;" id="elawaraxbjv0o" class="animable"></path><path d="M233.54,101.58c-.06.74-.51,1.3-1,1.26s-.83-.68-.76-1.42.5-1.31,1-1.26S233.6,100.84,233.54,101.58Z" style="fill: rgb(38, 50, 56); transform-origin: 232.659px 101.499px;" id="el0ahab5lxztv" class="animable"></path><path d="M224.69,101.36c-.06.74-.5,1.31-1,1.26s-.82-.68-.76-1.42.5-1.3,1-1.26S224.75,100.62,224.69,101.36Z" style="fill: rgb(38, 50, 56); transform-origin: 223.81px 101.281px;" id="eldn268fbt38j" class="animable"></path><path d="M226.48,102.36s-2,4.11-4.06,6c1.21,1.34,3.48,1,3.48,1Z" style="fill: rgb(237, 137, 62); transform-origin: 224.45px 105.879px;" id="elmvnzq63p9ih" class="animable"></path><path d="M235.69,99.36a.53.53,0,0,0,.22,0,.43.43,0,0,0,.24-.57,4.4,4.4,0,0,0-3-2.7.44.44,0,0,0-.51.34.44.44,0,0,0,.34.52h0a3.46,3.46,0,0,1,2.32,2.16A.43.43,0,0,0,235.69,99.36Z" style="fill: rgb(38, 50, 56); transform-origin: 234.408px 97.7271px;" id="el5sdyznz1nyi" class="animable"></path><path d="M220.57,98.54a.44.44,0,0,0,.41-.06,3.43,3.43,0,0,1,3.08-.61.43.43,0,0,0,.56-.26.44.44,0,0,0-.26-.56,4.29,4.29,0,0,0-3.9.73.44.44,0,0,0,.11.76Z" style="fill: rgb(38, 50, 56); transform-origin: 222.467px 97.7149px;" id="elpxzzhslofcs" class="animable"></path><path d="M246,132.61v0c-.15.22-1.79,2.77-4.14,6.62a18.25,18.25,0,0,1-8.4,4.41c.46-1.55-.93-6.8-2.47-8.42C234.62,135.43,239.62,134.81,246,132.61Z" style="fill: rgb(250, 250, 250); transform-origin: 238.495px 138.125px;" id="elk5l61aomkgl" class="animable"></path><path d="M231,135.24a13.45,13.45,0,0,0-7.23,7.7,5,5,0,0,1-2.74-3c.54-3.09,1.55-5.5,3.07-7C224.91,134,227.2,135,231,135.24Z" style="fill: rgb(250, 250, 250); transform-origin: 226.015px 137.94px;" id="el22hwxunehyn" class="animable"></path><path d="M267.66,142.31c.74,1.61,1.36,3,2,4.57s1.2,3,1.78,4.56c1.12,3.06,2.17,6.16,3.09,9.36a95.47,95.47,0,0,1,2.38,9.9c.32,1.72.59,3.5.77,5.38a38.11,38.11,0,0,1,.07,6.19,30.38,30.38,0,0,1-3.79,11.8,55.57,55.57,0,0,1-6,8.8,81.79,81.79,0,0,1-6.89,7.35,75.07,75.07,0,0,1-7.7,6.37,4.57,4.57,0,0,1-6.44-6.28l.15-.21,2.51-3.69c.85-1.24,1.66-2.51,2.47-3.77,1.59-2.51,3.14-5,4.47-7.56a53.91,53.91,0,0,0,3.41-7.43,25,25,0,0,0,1-3.44,10.21,10.21,0,0,0,.25-2.73,22.33,22.33,0,0,0-.45-3.17c-.24-1.22-.53-2.52-.89-3.85-.74-2.66-1.62-5.42-2.58-8.19s-2-5.56-3.07-8.35l-3.24-8.29-.08-.19a9.13,9.13,0,0,1,16.8-7.13Z" style="fill: rgb(38, 50, 56); transform-origin: 261.995px 177.229px;" id="el96h7f3o4dz" class="animable"></path><path d="M214.05,189.43a20.39,20.39,0,0,0,21.9,34.2l2.5,3.2-.46,2,5.31,6.83,2.9.06-.79,3.37,10.42,13.4,5.6.1,1.88,2.43-.93,4,6.91,8.88,5.86.11,1-6.29-33.69-43.31h0a20.39,20.39,0,0,0-28.37-28.93Zm8.62,11.08a5.19,5.19,0,1,1,.9-7.28A5.19,5.19,0,0,1,222.67,200.51Z" style="fill: rgb(10, 158, 84); transform-origin: 241.161px 226.589px;" id="elemechdwcrc5" class="animable"></path><path d="M254.62,214.62a2.08,2.08,0,0,0-.85-1.18L250.24,211a2.2,2.2,0,0,0-2.33-.11l-3.17,1.81a24.68,24.68,0,0,0-7.83,7l-.69,1a3.61,3.61,0,0,0,.89,5.08l3.66,2.52a3.61,3.61,0,0,0,4.65-.48L249,224S255.8,219,254.62,214.62Z" style="fill: rgb(255, 181, 115); transform-origin: 245.151px 219.771px;" id="ely1saxko4ye7" class="animable"></path><path d="M248.11,209a16.78,16.78,0,0,0-4.32,2.66c.46,2.81,8.29,7.49,10.93,7.55,1.07-1,2.48-5.11,2.48-5.11C254.24,212.82,250.25,210,248.11,209Z" style="fill: rgb(224, 224, 224); transform-origin: 250.495px 214.105px;" id="elaj2nodvihkg" class="animable"></path><path d="M168,139a16.67,16.67,0,0,0-.66-5c-2.75-.74-10.22,4.5-11.35,6.9.49,1.39,3.64,4.34,3.64,4.34C162,143,166.2,140.5,168,139Z" style="fill: rgb(224, 224, 224); transform-origin: 161.997px 139.585px;" id="elj2rvq6kxg6s" class="animable"></path><polygon points="244.94 410.51 257.22 410.86 258.5 403.88 244.13 404.74 244.94 410.51" style="fill: rgb(10, 158, 84); transform-origin: 251.315px 407.37px;" id="elebgazf48rik" class="animable"></polygon><polygon points="187.72 409.26 200.85 411.29 203.07 405.49 188.52 402.2 187.72 409.26" style="fill: rgb(10, 158, 84); transform-origin: 195.395px 406.745px;" id="eld8eoq573m9" class="animable"></polygon><path d="M229.32,112a7.72,7.72,0,0,1-1.42-.07.23.23,0,0,1-.19-.28.28.28,0,0,1,.3-.22,7.09,7.09,0,0,0,5.9-1.85.26.26,0,0,1,.36,0,.25.25,0,0,1,0,.35A7.47,7.47,0,0,1,229.32,112Z" style="fill: rgb(38, 50, 56); transform-origin: 231.023px 110.757px;" id="el5kovz82exhk" class="animable"></path></g><g id="freepik--House--inject-18" class="animable" style="transform-origin: 140.589px 92.2781px;"><polygon points="194.91 75.45 164.66 73.02 138.97 60.27 110.81 68.69 106.75 119.24 190.85 126 194.91 75.45" style="fill: rgb(10, 158, 84); transform-origin: 150.83px 93.135px;" id="elij404pvpi2d" class="animable"></polygon><polygon points="98.04 124.15 84.73 123.08 86.4 102.32 87.99 102.45 86.45 121.62 98.17 122.56 98.04 124.15" style="fill: rgb(10, 158, 84); transform-origin: 91.45px 113.235px;" id="elnarqgew4kzm" class="animable"></polygon><g id="el11myubnuoxxf"><rect x="108.27" y="119.04" width="1.6" height="10.4" style="fill: rgb(10, 158, 84); transform-origin: 109.07px 124.24px; transform: rotate(-85.4261deg);" class="animable"></rect></g><g id="elyz9wl79idd"><rect x="91.47" y="100.13" width="19.17" height="18.62" style="fill: rgb(10, 158, 84); transform-origin: 101.055px 109.44px; transform: rotate(4.6deg);" class="animable"></rect></g><g id="elm1bp3prxkdk"><polygon points="109.86 119.49 126.62 120.84 128.65 95.56 111.35 100.92 109.86 119.49" style="opacity: 0.2; transform-origin: 119.255px 108.2px;" class="animable"></polygon></g><g id="el3truhizpv4s"><rect x="162.58" y="74.16" width="30.35" height="50.71" style="opacity: 0.2; transform-origin: 177.755px 99.515px; transform: rotate(4.6deg);" class="animable"></rect></g><polygon points="169.22 62.7 138.97 60.27 164.66 73.02 194.91 75.45 169.22 62.7" style="fill: rgb(38, 50, 56); transform-origin: 166.94px 67.86px;" id="ellra5d99gyn" class="animable"></polygon><path d="M194.91,77.05h-.13l-30.25-2.43a1.69,1.69,0,0,1-.58-.17L138.26,61.7a1.6,1.6,0,0,1-.83-1.86,1.62,1.62,0,0,1,1.67-1.17l30.25,2.43a1.74,1.74,0,0,1,.59.17L195.62,74a1.6,1.6,0,0,1-.71,3Zm-29.82-5.6,21.68,1.75-18-8.93-21.68-1.75Z" style="fill: rgb(38, 50, 56); transform-origin: 166.91px 67.858px;" id="elc0p5gcr6c6" class="animable"></path><polygon points="109.55 94.03 128.65 95.56 111.35 100.92 92.25 99.39 109.55 94.03" style="fill: rgb(38, 50, 56); transform-origin: 110.45px 97.475px;" id="ellfi371eupms" class="animable"></polygon><path d="M111.35,101.94h-.08L92.16,100.4a1,1,0,0,1-.92-.9A1,1,0,0,1,92,98.43l17.3-5.37a1,1,0,0,1,.38,0l19.1,1.54a1,1,0,0,1,.93.89,1,1,0,0,1-.71,1.08l-17.3,5.36A1,1,0,0,1,111.35,101.94ZM97.55,98.8l13.69,1.1,12.11-3.75-13.69-1.1Z" style="fill: rgb(38, 50, 56); transform-origin: 110.476px 97.4963px;" id="eld41xbr9y1s9" class="animable"></path><line x1="138.97" y1="60.27" x2="111.58" y2="68.75" style="fill: rgb(38, 50, 56); transform-origin: 125.275px 64.51px;" id="eluen6htk0nd9" class="animable"></line><path d="M111.58,70.35a1.6,1.6,0,0,1-.48-3.12l27.4-8.49a1.6,1.6,0,1,1,.94,3l-27.39,8.49A1.58,1.58,0,0,1,111.58,70.35Z" style="fill: rgb(38, 50, 56); transform-origin: 125.427px 64.4504px;" id="elyjx65vn5dh" class="animable"></path><g id="eldh6jtfzf1bs"><rect x="137.21" y="102.22" width="10.92" height="19.87" style="fill: rgb(255, 255, 255); opacity: 0.6; transform-origin: 142.67px 112.155px; transform: rotate(4.57392deg);" class="animable"></rect></g><g id="el9m36x31p8k4"><rect x="124.17" y="77.01" width="25.68" height="15.44" style="fill: rgb(255, 255, 255); transform-origin: 137.01px 84.73px; transform: rotate(4.6deg);" class="animable"></rect></g><g id="el3ts7lpa7zow"><rect x="125.14" y="77.51" width="10.81" height="13.4" style="fill: rgb(10, 158, 84); transform-origin: 130.545px 84.21px; transform: rotate(4.6deg);" class="animable"></rect></g><g id="ely4ussed0h1"><rect x="138.07" y="78.55" width="10.81" height="13.4" style="fill: rgb(10, 158, 84); transform-origin: 143.475px 85.25px; transform: rotate(4.6deg);" class="animable"></rect></g><g id="ell4oleu0lqn"><rect x="171.86" y="80.39" width="14.35" height="15.44" style="fill: rgb(255, 255, 255); transform-origin: 179.035px 88.11px; transform: rotate(4.6deg);" class="animable"></rect></g><g id="eludja76w3zw"><rect x="172.4" y="81.12" width="6.04" height="13.4" style="fill: rgb(10, 158, 84); transform-origin: 175.42px 87.82px; transform: rotate(4.6deg);" class="animable"></rect></g><g id="el1yr72tbj7y2"><rect x="179.62" y="81.7" width="6.04" height="13.4" style="fill: rgb(10, 158, 84); transform-origin: 182.64px 88.4px; transform: rotate(4.6deg);" class="animable"></rect></g><g id="elfhxchej41yw"><rect x="169.88" y="104.98" width="14.35" height="15.44" style="fill: rgb(255, 255, 255); transform-origin: 177.055px 112.7px; transform: rotate(4.6deg);" class="animable"></rect></g><g id="eldmbkpw98h4q"><rect x="170.42" y="105.71" width="6.04" height="13.4" style="fill: rgb(10, 158, 84); transform-origin: 173.44px 112.41px; transform: rotate(4.6deg);" class="animable"></rect></g><g id="elgienyiefd7f"><rect x="177.65" y="106.29" width="6.04" height="13.4" style="fill: rgb(10, 158, 84); transform-origin: 180.67px 112.99px; transform: rotate(4.57392deg);" class="animable"></rect></g></g><defs>     <filter id="active" height="200%">         <feMorphology in="SourceAlpha" result="DILATED" operator="dilate" radius="2"></feMorphology>                <feFlood flood-color="#32DFEC" flood-opacity="1" result="PINK"></feFlood>        <feComposite in="PINK" in2="DILATED" operator="in" result="OUTLINE"></feComposite>        <feMerge>            <feMergeNode in="OUTLINE"></feMergeNode>            <feMergeNode in="SourceGraphic"></feMergeNode>        </feMerge>    </filter>    <filter id="hover" height="200%">        <feMorphology in="SourceAlpha" result="DILATED" operator="dilate" radius="2"></feMorphology>                <feFlood flood-color="#ff0000" flood-opacity="0.5" result="PINK"></feFlood>        <feComposite in="PINK" in2="DILATED" operator="in" result="OUTLINE"></feComposite>        <feMerge>            <feMergeNode in="OUTLINE"></feMergeNode>            <feMergeNode in="SourceGraphic"></feMergeNode>        </feMerge>            <feColorMatrix type="matrix" values="0   0   0   0   0                0   1   0   0   0                0   0   0   0   0                0   0   0   1   0 "></feColorMatrix>    </filter></defs></svg>