<svg xmlns="http://www.w3.org/2000/svg" xmlns:xlink="http://www.w3.org/1999/xlink" width="330" zoomAndPan="magnify" viewBox="0 0 247.5 183.000001" height="244" preserveAspectRatio="xMidYMid meet" version="1.0"><defs><g/><clipPath id="cd89259160"><path d="M 57.453125 8 L 182 8 L 182 135 L 57.453125 135 Z M 57.453125 8 " clip-rule="nonzero"/></clipPath><clipPath id="af11bc1d3d"><path d="M 57.453125 37 L 162 37 L 162 104 L 57.453125 104 Z M 57.453125 37 " clip-rule="nonzero"/></clipPath></defs><g fill="#ffffff" fill-opacity="1"><g transform="translate(31.686296, 167.170595)"><g><path d="M 14.539062 -20.574219 L 14.539062 -12.582031 L 7.132812 -12.582031 L 7.132812 -20.574219 L 1.886719 -20.574219 L 1.886719 0 L 7.132812 0 L 7.132812 -8.023438 L 14.539062 -8.023438 L 14.539062 0 L 19.785156 0 L 19.785156 -20.574219 Z M 14.539062 -20.574219 "/></g></g></g><g fill="#ffffff" fill-opacity="1"><g transform="translate(54.398425, 167.170595)"><g><path d="M 11.726562 0.273438 C 17.554688 0.273438 22.289062 -4.457031 22.289062 -10.285156 C 22.289062 -16.117188 17.554688 -20.847656 11.726562 -20.847656 C 5.863281 -20.847656 1.164062 -16.117188 1.164062 -10.285156 C 1.164062 -4.457031 5.863281 0.273438 11.726562 0.273438 Z M 11.726562 -4.867188 C 8.605469 -4.867188 6.273438 -7.167969 6.273438 -10.285156 C 6.273438 -13.40625 8.605469 -15.703125 11.726562 -15.703125 C 14.8125 -15.703125 17.144531 -13.40625 17.144531 -10.285156 C 17.144531 -7.167969 14.8125 -4.867188 11.726562 -4.867188 Z M 11.726562 -4.867188 "/></g></g></g><g fill="#ffffff" fill-opacity="1"><g transform="translate(78.824389, 167.170595)"><g><path d="M 10.59375 0.273438 C 15.53125 0.273438 19.40625 -2.707031 19.40625 -6.550781 L 19.40625 -20.574219 L 14.160156 -20.574219 L 14.160156 -7.542969 C 14.160156 -5.726562 12.582031 -4.285156 10.59375 -4.285156 C 8.605469 -4.285156 7.027344 -5.726562 7.027344 -7.542969 L 7.027344 -20.574219 L 1.78125 -20.574219 L 1.78125 -6.550781 C 1.78125 -2.707031 5.65625 0.273438 10.59375 0.273438 Z M 10.59375 0.273438 "/></g></g></g><g fill="#ffffff" fill-opacity="1"><g transform="translate(101.022363, 167.170595)"><g><path d="M 8.605469 0.273438 C 12.550781 0.273438 15.945312 -2.023438 15.945312 -5.964844 C 15.945312 -13.785156 6.617188 -11.828125 6.617188 -14.949219 C 6.617188 -15.839844 7.304688 -16.253906 8.125 -16.253906 C 9.15625 -16.253906 10.285156 -15.636719 11.382812 -14.46875 L 14.8125 -17.796875 C 13.199219 -19.679688 10.765625 -20.847656 8.195312 -20.847656 C 4.9375 -20.847656 1.335938 -18.960938 1.335938 -14.574219 C 1.335938 -7.441406 10.699219 -9.15625 10.699219 -6.035156 C 10.699219 -5.210938 10.011719 -4.628906 8.675781 -4.628906 C 6.890625 -4.628906 5.453125 -5.589844 4.730469 -7.132812 L 0.445312 -4.457031 C 1.816406 -1.851562 4.835938 0.273438 8.605469 0.273438 Z M 8.605469 0.273438 "/></g></g></g><g fill="#ffffff" fill-opacity="1"><g transform="translate(118.730095, 167.170595)"><g><path d="M 14.8125 -16.011719 L 14.8125 -20.574219 L 2.058594 -20.574219 L 2.058594 0 L 14.8125 0 L 14.8125 -4.558594 L 7.304688 -4.558594 L 7.304688 -8.023438 L 13.648438 -8.023438 L 13.648438 -12.550781 L 7.304688 -12.550781 L 7.304688 -16.011719 Z M 14.8125 -16.011719 "/></g></g></g><g fill="#ffffff" fill-opacity="1"><g transform="translate(135.71802, 167.170595)"><g/></g></g><g fill="#ffffff" fill-opacity="1"><g transform="translate(144.959412, 167.170595)"><g><path d="M 7.132812 -4.558594 L 7.132812 -20.574219 L 1.886719 -20.574219 L 1.886719 0 L 13.679688 0 L 13.679688 -4.558594 Z M 7.132812 -4.558594 "/></g></g></g><g fill="#ffffff" fill-opacity="1"><g transform="translate(159.650802, 167.170595)"><g><path d="M 2.058594 0 L 7.304688 0 L 7.304688 -20.574219 L 2.058594 -20.574219 Z M 2.058594 0 "/></g></g></g><g fill="#ffffff" fill-opacity="1"><g transform="translate(169.989049, 167.170595)"><g><path d="M 16.664062 -20.574219 L 16.664062 -7.988281 L 7.371094 -20.574219 L 1.886719 -20.574219 L 1.886719 0 L 7.132812 0 L 7.132812 -12.617188 L 16.390625 0 L 21.910156 0 L 21.910156 -20.574219 Z M 16.664062 -20.574219 "/></g></g></g><g fill="#ffffff" fill-opacity="1"><g transform="translate(194.792059, 167.170595)"><g><path d="M 14.914062 0 L 21.875 0 L 11.933594 -11.554688 L 20.605469 -20.574219 L 13.921875 -20.574219 L 7.714844 -13.679688 L 7.132812 -13.679688 L 7.132812 -20.574219 L 1.886719 -20.574219 L 1.886719 0 L 7.132812 0 L 7.132812 -9.1875 L 7.476562 -9.1875 Z M 14.914062 0 "/></g></g></g><g fill="#ffffff" fill-opacity="1"><g transform="translate(47.383031, 179.826486)"><g><path d="M 5.332031 -5.933594 L 3.878906 -5.933594 L 2.613281 -3.925781 L 1.34375 -5.933594 L -0.128906 -5.933594 L 1.957031 -2.789062 L 1.957031 0 L 3.265625 0 L 3.265625 -2.800781 Z M 5.332031 -5.933594 "/></g></g></g><g fill="#ffffff" fill-opacity="1"><g transform="translate(54.384862, 179.826486)"><g><path d="M 3.414062 0.078125 C 5.105469 0.078125 6.460938 -1.285156 6.460938 -2.96875 C 6.460938 -4.648438 5.105469 -6.015625 3.414062 -6.015625 C 1.730469 -6.015625 0.367188 -4.648438 0.367188 -2.96875 C 0.367188 -1.285156 1.730469 0.078125 3.414062 0.078125 Z M 3.414062 -1.195312 C 2.414062 -1.195312 1.652344 -1.96875 1.652344 -2.96875 C 1.652344 -3.96875 2.414062 -4.738281 3.414062 -4.738281 C 4.421875 -4.738281 5.183594 -3.96875 5.183594 -2.96875 C 5.183594 -1.96875 4.421875 -1.195312 3.414062 -1.195312 Z M 3.414062 -1.195312 "/></g></g></g><g fill="#ffffff" fill-opacity="1"><g transform="translate(63.009041, 179.826486)"><g><path d="M 3.015625 0.078125 C 4.421875 0.078125 5.492188 -0.78125 5.492188 -1.898438 L 5.492188 -5.933594 L 4.183594 -5.933594 L 4.183594 -2.148438 C 4.183594 -1.542969 3.679688 -1.078125 3.015625 -1.078125 C 2.363281 -1.078125 1.859375 -1.542969 1.859375 -2.148438 L 1.859375 -5.933594 L 0.554688 -5.933594 L 0.554688 -1.898438 C 0.554688 -0.78125 1.632812 0.078125 3.015625 0.078125 Z M 3.015625 0.078125 "/></g></g></g><g fill="#ffffff" fill-opacity="1"><g transform="translate(70.841836, 179.826486)"><g><path d="M 3.679688 -2.445312 C 4.382812 -2.652344 4.875 -3.304688 4.875 -4.113281 C 4.875 -5.125 4.125 -5.933594 3.105469 -5.933594 L 0.582031 -5.933594 L 0.582031 0 L 1.890625 0 L 1.890625 -2.296875 L 2.414062 -2.296875 L 3.878906 0 L 5.34375 0 Z M 2.910156 -3.375 L 1.890625 -3.375 L 1.890625 -4.777344 L 2.910156 -4.777344 C 3.324219 -4.777344 3.628906 -4.480469 3.628906 -4.074219 C 3.628906 -3.660156 3.324219 -3.375 2.910156 -3.375 Z M 2.910156 -3.375 "/></g></g></g><g fill="#ffffff" fill-opacity="1"><g transform="translate(77.922801, 179.826486)"><g/></g></g><g fill="#ffffff" fill-opacity="1"><g transform="translate(82.085507, 179.826486)"><g><path d="M 4.304688 -5.933594 L 4.304688 -3.550781 L 1.890625 -3.550781 L 1.890625 -5.933594 L 0.582031 -5.933594 L 0.582031 0 L 1.890625 0 L 1.890625 -2.394531 L 4.304688 -2.394531 L 4.304688 0 L 5.597656 0 L 5.597656 -5.933594 Z M 4.304688 -5.933594 "/></g></g></g><g fill="#ffffff" fill-opacity="1"><g transform="translate(90.066679, 179.826486)"><g><path d="M 3.414062 0.078125 C 5.105469 0.078125 6.460938 -1.285156 6.460938 -2.96875 C 6.460938 -4.648438 5.105469 -6.015625 3.414062 -6.015625 C 1.730469 -6.015625 0.367188 -4.648438 0.367188 -2.96875 C 0.367188 -1.285156 1.730469 0.078125 3.414062 0.078125 Z M 3.414062 -1.195312 C 2.414062 -1.195312 1.652344 -1.96875 1.652344 -2.96875 C 1.652344 -3.96875 2.414062 -4.738281 3.414062 -4.738281 C 4.421875 -4.738281 5.183594 -3.96875 5.183594 -2.96875 C 5.183594 -1.96875 4.421875 -1.195312 3.414062 -1.195312 Z M 3.414062 -1.195312 "/></g></g></g><g fill="#ffffff" fill-opacity="1"><g transform="translate(98.690856, 179.826486)"><g><path d="M 5.757812 -5.933594 L 3.867188 -1.832031 L 2 -5.933594 L 0.582031 -5.933594 L 0.582031 0 L 1.890625 0 L 1.890625 -3.542969 L 3.492188 0 L 4.242188 0 L 5.855469 -3.53125 L 5.855469 0 L 7.160156 0 L 7.160156 -5.933594 Z M 5.757812 -5.933594 "/></g></g></g><g fill="#ffffff" fill-opacity="1"><g transform="translate(108.22514, 179.826486)"><g><path d="M 4.203125 -4.789062 L 4.203125 -5.933594 L 0.632812 -5.933594 L 0.632812 0 L 4.203125 0 L 4.203125 -1.148438 L 1.9375 -1.148438 L 1.9375 -2.394531 L 3.878906 -2.394531 L 3.878906 -3.542969 L 1.9375 -3.542969 L 1.9375 -4.789062 Z M 4.203125 -4.789062 "/></g></g></g><g fill="#ffffff" fill-opacity="1"><g transform="translate(114.623533, 179.826486)"><g><path d="M 0.800781 1.40625 L 2.1875 -1.039062 L 0.96875 -1.039062 L 0.03125 1.40625 Z M 0.800781 1.40625 "/></g></g></g><g fill="#ffffff" fill-opacity="1"><g transform="translate(118.8456, 179.826486)"><g/></g></g><g fill="#ffffff" fill-opacity="1"><g transform="translate(123.008306, 179.826486)"><g><path d="M 3.414062 0.078125 C 5.105469 0.078125 6.460938 -1.285156 6.460938 -2.96875 C 6.460938 -4.648438 5.105469 -6.015625 3.414062 -6.015625 C 1.730469 -6.015625 0.367188 -4.648438 0.367188 -2.96875 C 0.367188 -1.285156 1.730469 0.078125 3.414062 0.078125 Z M 3.414062 -1.195312 C 2.414062 -1.195312 1.652344 -1.96875 1.652344 -2.96875 C 1.652344 -3.96875 2.414062 -4.738281 3.414062 -4.738281 C 4.421875 -4.738281 5.183594 -3.96875 5.183594 -2.96875 C 5.183594 -1.96875 4.421875 -1.195312 3.414062 -1.195312 Z M 3.414062 -1.195312 "/></g></g></g><g fill="#ffffff" fill-opacity="1"><g transform="translate(131.632483, 179.826486)"><g><path d="M 3.015625 0.078125 C 4.421875 0.078125 5.492188 -0.78125 5.492188 -1.898438 L 5.492188 -5.933594 L 4.183594 -5.933594 L 4.183594 -2.148438 C 4.183594 -1.542969 3.679688 -1.078125 3.015625 -1.078125 C 2.363281 -1.078125 1.859375 -1.542969 1.859375 -2.148438 L 1.859375 -5.933594 L 0.554688 -5.933594 L 0.554688 -1.898438 C 0.554688 -0.78125 1.632812 0.078125 3.015625 0.078125 Z M 3.015625 0.078125 "/></g></g></g><g fill="#ffffff" fill-opacity="1"><g transform="translate(139.465276, 179.826486)"><g><path d="M 3.679688 -2.445312 C 4.382812 -2.652344 4.875 -3.304688 4.875 -4.113281 C 4.875 -5.125 4.125 -5.933594 3.105469 -5.933594 L 0.582031 -5.933594 L 0.582031 0 L 1.890625 0 L 1.890625 -2.296875 L 2.414062 -2.296875 L 3.878906 0 L 5.34375 0 Z M 2.910156 -3.375 L 1.890625 -3.375 L 1.890625 -4.777344 L 2.910156 -4.777344 C 3.324219 -4.777344 3.628906 -4.480469 3.628906 -4.074219 C 3.628906 -3.660156 3.324219 -3.375 2.910156 -3.375 Z M 2.910156 -3.375 "/></g></g></g><g fill="#ffffff" fill-opacity="1"><g transform="translate(146.546246, 179.826486)"><g/></g></g><g fill="#ffffff" fill-opacity="1"><g transform="translate(150.708957, 179.826486)"><g><path d="M 3.105469 -5.933594 L 0.582031 -5.933594 L 0.582031 0 L 1.890625 0 L 1.890625 -2.402344 L 3.105469 -2.402344 C 4.105469 -2.402344 4.875 -3.144531 4.875 -4.144531 C 4.875 -5.132812 4.105469 -5.933594 3.105469 -5.933594 Z M 2.898438 -3.480469 L 1.890625 -3.480469 L 1.890625 -4.789062 L 2.898438 -4.789062 C 3.3125 -4.789062 3.628906 -4.519531 3.628906 -4.136719 C 3.628906 -3.738281 3.3125 -3.480469 2.898438 -3.480469 Z M 2.898438 -3.480469 "/></g></g></g><g fill="#ffffff" fill-opacity="1"><g transform="translate(157.414014, 179.826486)"><g><path d="M 3.679688 -2.445312 C 4.382812 -2.652344 4.875 -3.304688 4.875 -4.113281 C 4.875 -5.125 4.125 -5.933594 3.105469 -5.933594 L 0.582031 -5.933594 L 0.582031 0 L 1.890625 0 L 1.890625 -2.296875 L 2.414062 -2.296875 L 3.878906 0 L 5.34375 0 Z M 2.910156 -3.375 L 1.890625 -3.375 L 1.890625 -4.777344 L 2.910156 -4.777344 C 3.324219 -4.777344 3.628906 -4.480469 3.628906 -4.074219 C 3.628906 -3.660156 3.324219 -3.375 2.910156 -3.375 Z M 2.910156 -3.375 "/></g></g></g><g fill="#ffffff" fill-opacity="1"><g transform="translate(164.494985, 179.826486)"><g><path d="M 0.632812 0 L 1.9375 0 L 1.9375 -5.933594 L 0.632812 -5.933594 Z M 0.632812 0 "/></g></g></g><g fill="#ffffff" fill-opacity="1"><g transform="translate(168.845653, 179.826486)"><g><path d="M 3.414062 0.078125 C 5.105469 0.078125 6.460938 -1.285156 6.460938 -2.96875 C 6.460938 -4.648438 5.105469 -6.015625 3.414062 -6.015625 C 1.730469 -6.015625 0.367188 -4.648438 0.367188 -2.96875 C 0.367188 -1.285156 1.730469 0.078125 3.414062 0.078125 Z M 3.414062 -1.195312 C 2.414062 -1.195312 1.652344 -1.96875 1.652344 -2.96875 C 1.652344 -3.96875 2.414062 -4.738281 3.414062 -4.738281 C 4.421875 -4.738281 5.183594 -3.96875 5.183594 -2.96875 C 5.183594 -1.96875 4.421875 -1.195312 3.414062 -1.195312 Z M 3.414062 -1.195312 "/></g></g></g><g fill="#ffffff" fill-opacity="1"><g transform="translate(177.469835, 179.826486)"><g><path d="M 3.679688 -2.445312 C 4.382812 -2.652344 4.875 -3.304688 4.875 -4.113281 C 4.875 -5.125 4.125 -5.933594 3.105469 -5.933594 L 0.582031 -5.933594 L 0.582031 0 L 1.890625 0 L 1.890625 -2.296875 L 2.414062 -2.296875 L 3.878906 0 L 5.34375 0 Z M 2.910156 -3.375 L 1.890625 -3.375 L 1.890625 -4.777344 L 2.910156 -4.777344 C 3.324219 -4.777344 3.628906 -4.480469 3.628906 -4.074219 C 3.628906 -3.660156 3.324219 -3.375 2.910156 -3.375 Z M 2.910156 -3.375 "/></g></g></g><g fill="#ffffff" fill-opacity="1"><g transform="translate(184.550805, 179.826486)"><g><path d="M 0.632812 0 L 1.9375 0 L 1.9375 -5.933594 L 0.632812 -5.933594 Z M 0.632812 0 "/></g></g></g><g fill="#ffffff" fill-opacity="1"><g transform="translate(188.901473, 179.826486)"><g><path d="M 4.242188 -5.933594 L -0.0507812 -5.933594 L -0.0507812 -4.777344 L 1.453125 -4.777344 L 1.453125 0 L 2.75 0 L 2.75 -4.777344 L 4.242188 -4.777344 Z M 4.242188 -5.933594 "/></g></g></g><g fill="#ffffff" fill-opacity="1"><g transform="translate(194.884389, 179.826486)"><g><path d="M 5.332031 -5.933594 L 3.878906 -5.933594 L 2.613281 -3.925781 L 1.34375 -5.933594 L -0.128906 -5.933594 L 1.957031 -2.789062 L 1.957031 0 L 3.265625 0 L 3.265625 -2.800781 Z M 5.332031 -5.933594 "/></g></g></g><g clip-path="url(#cd89259160)"><path fill="#ffffff" d="M 77.980469 119.699219 C 60.414062 105.125 63.75 92.050781 65.949219 92.023438 C 68.046875 92 69.261719 102.457031 78.511719 109.820312 C 83.289062 113.605469 90.644531 116.117188 100.507812 116.902344 C 102.351562 117.054688 94.792969 111.164062 92.011719 105.429688 C 89.207031 99.691406 90.699219 94.4375 92.417969 94.691406 C 94.164062 94.945312 96.5625 102.535156 100.152344 105.402344 C 103.769531 108.269531 111.679688 112.6875 114.8125 117.285156 C 116.609375 119.925781 121.992188 123.863281 126.214844 127.261719 C 139.535156 124.570312 149.21875 118.914062 157.8125 107.386719 C 179.375 78.46875 170.753906 36.273438 137.007812 20.15625 C 159.328125 34.753906 164.660156 55.164062 158.71875 60.699219 C 141.730469 76.589844 124.46875 48.871094 116.855469 42.75 C 100.324219 29.398438 77.625 21.601562 57.90625 56.5625 C 59.855469 48.589844 63.394531 40.871094 68.625 33.890625 C 89.378906 6.066406 128.6875 0.40625 156.390625 21.246094 C 184.097656 42.113281 189.734375 81.566406 168.957031 109.414062 C 158.265625 123.734375 142.210938 132.671875 124.667969 134.320312 C 110.386719 135.691406 95.625 132.160156 83.011719 123.351562 C 81.214844 122.210938 79.546875 120.992188 77.980469 119.699219 Z M 81.417969 110.050781 C 81.417969 108.375 80.660156 103.273438 79.621094 101.648438 C 78.585938 100.019531 78.078125 106.21875 78.636719 107.839844 C 79.394531 108.601562 80.382812 109.363281 81.417969 110.050781 Z M 77.117188 106.621094 C 77.5 104.058594 77.875 97.253906 76.4375 95.171875 C 75.019531 93.066406 73.65625 100.527344 74.136719 103.171875 C 75.125 104.515625 75.703125 105.300781 77.117188 106.621094 Z M 72.871094 101.574219 C 72.871094 101.574219 74.136719 92.460938 72.519531 90.023438 C 70.898438 87.5625 69.179688 91.46875 69.6875 94.515625 C 70.167969 97.582031 72.871094 101.574219 72.871094 101.574219 Z M 72.871094 101.574219 " fill-opacity="1" fill-rule="evenodd"/></g><path fill="#ffffff" d="M 89.710938 68.160156 L 89.710938 73.617188 L 95.167969 73.617188 L 95.167969 68.160156 Z M 97.316406 75.804688 L 97.316406 81.285156 L 102.78125 81.285156 L 102.78125 75.804688 Z M 89.710938 75.804688 L 89.710938 81.285156 L 95.167969 81.285156 L 95.167969 75.804688 Z M 97.316406 68.160156 L 97.316406 73.617188 L 102.78125 73.617188 L 102.78125 68.160156 Z M 97.316406 68.160156 " fill-opacity="1" fill-rule="evenodd"/><g clip-path="url(#af11bc1d3d)"><path fill="#ffffff" d="M 107.40625 102.917969 C 106.417969 104.007812 104.722656 104.058594 103.636719 103.070312 C 102.578125 102.050781 102.5 100.378906 103.511719 99.285156 L 108.871094 93.472656 L 108.871094 81.820312 C 108.871094 80.324219 110.058594 79.128906 111.523438 79.128906 L 120.296875 79.128906 C 120.800781 79.128906 121.308594 79.28125 121.710938 79.535156 L 133.820312 66.382812 C 134.882812 65.242188 136.675781 65.265625 137.738281 66.410156 L 160.714844 91.339844 C 161.703125 92.40625 161.652344 94.105469 160.566406 95.09375 C 159.480469 96.109375 157.808594 96.035156 156.796875 94.96875 L 135.765625 72.144531 L 122.421875 86.640625 C 121.941406 87.277344 121.15625 87.707031 120.300781 87.707031 C 119.4375 87.707031 118.707031 87.300781 118.199219 86.691406 C 117.621094 85.953125 117.621094 85.347656 117.621094 84.480469 L 114.207031 84.480469 L 114.207031 94.003906 C 114.207031 94.890625 114.15625 95.601562 113.5 96.3125 Z M 62.355469 80.804688 C 61.371094 81.875 59.675781 81.949219 58.589844 80.933594 C 57.527344 79.945312 57.453125 78.242188 58.464844 77.152344 L 69.335938 65.371094 L 69.335938 53.691406 C 69.335938 52.21875 70.523438 51 72.015625 51 L 80.761719 51 C 81.269531 51 81.777344 51.152344 82.179688 51.433594 L 94.289062 38.285156 C 95.351562 37.140625 97.167969 37.140625 98.207031 38.308594 L 124.292969 67.199219 C 125.277344 68.292969 125.199219 69.992188 124.117188 70.984375 C 123.03125 71.972656 121.335938 71.894531 120.347656 70.804688 L 96.234375 44.074219 L 82.886719 58.519531 C 82.40625 59.179688 81.625 59.585938 80.765625 59.585938 C 79.933594 59.585938 79.199219 59.230469 78.71875 58.648438 C 78.085938 57.910156 78.085938 57.277344 78.085938 56.386719 L 74.667969 56.386719 L 74.667969 65.503906 C 74.667969 66.515625 74.742188 67.359375 73.957031 68.21875 Z M 62.355469 80.804688 " fill-opacity="1" fill-rule="nonzero"/></g><path fill="#ffffff" d="M 129.246094 90.65625 L 129.246094 96.136719 L 134.703125 96.136719 L 134.703125 90.65625 Z M 136.855469 98.296875 L 136.855469 103.777344 L 142.3125 103.777344 L 142.3125 98.296875 Z M 129.246094 98.296875 L 129.246094 103.777344 L 134.703125 103.777344 L 134.703125 98.296875 Z M 136.855469 90.65625 L 136.855469 96.136719 L 142.3125 96.136719 L 142.3125 90.65625 Z M 136.855469 90.65625 " fill-opacity="1" fill-rule="evenodd"/></svg>